<svg width="102" height="85" viewBox="0 0 102 85" fill="none" xmlns="http://www.w3.org/2000/svg">
<path d="M85.8157 65C62.3647 52.502 26.6471 49.0025 5 50.5023L6.80392 8.00902C20.1529 4.50962 44.6863 3.51506 58.7569 8.00904C72.8275 12.503 77.1569 13.5082 97 27.506L85.8157 65Z" stroke="#DC2626" stroke-width="8"/>
<path d="M38.0769 13.5967L53.5 3.5C53.5 3.5 61 5.00002 63 5.50002C65 6.00002 71 8 71 8L54.2296 19.1047L62.905 34.1043L36.8559 39.5535L49.4185 28.2208L38.0769 13.5967Z" fill="#DC2626"/>
<path d="M43.3908 77.1782C46.3673 71.6655 39.1359 61.4574 38.8634 61.0381C38.5909 60.6189 27.6281 73.1116 31.0237 79.2532C33.0257 82.8741 40.4143 82.691 43.3908 77.1782Z" fill="#DC2626"/>
</svg>
