<svg width="150" height="96" viewBox="0 0 150 96" fill="none" xmlns="http://www.w3.org/2000/svg">
<path d="M117.337 89.3948C113.007 82.6637 110.62 73.7989 110.62 64.426C110.62 55.0555 113.007 46.1881 117.337 39.4599C119.521 36.0718 122.075 33.3928 124.887 31.4909C123.446 31.3158 121.92 31.1067 120.326 30.861C112.674 29.6883 103.419 27.7296 93.6788 24.9268C86.3712 22.8301 78.7754 20.2587 71.3096 17.2207C60.3767 12.7783 49.7348 7.31911 40.5847 1.08827C31.0958 -1.54309 17.95 4.78955 8.82556 17.164C-1.06765 30.5808 -2.77142 46.4082 4.36366 54.2131C10.9534 58.6977 17.7296 62.7103 24.5712 66.3272C34.9813 71.8234 45.5557 76.3897 55.9209 80.1964C71.4743 85.9042 86.5444 89.9086 100.026 92.5591C106.768 93.8904 113.112 94.8708 118.999 95.5407C120.364 95.6989 121.703 95.8344 123.023 95.9563C120.943 94.2127 119.027 92.017 117.337 89.3948Z" fill="#DC2626"/>
<path d="M146 62.8127C146 75.1128 140.609 89 132.972 89C125.335 89 118.369 74.5887 119.046 63.2094C119.647 53.104 126.242 38.6637 134.769 39.006C144.652 39.4028 146 51.856 146 62.8127Z" stroke="#DC2626" stroke-width="8"/>
</svg>
